# xmcd CD database file
#
# Track frame offsets:
#	150
#	19212
#	34752
#	60195
#	79162
#	106217
#	122827
#	143452
#	164530
#	187150
#	204070
#	220395
#
# Disc length: 3139 seconds
#
# Revision: 0
# Processed by: cddbd v1.5.2PL0 Copyright (c) Steve Scherf et al.
# Submitted via: CDex 1.51
#
DISCID=9f0c410c
DTITLE=Jazz Trio Project (Bobby Durham, Lorenzo Conte, Massimo Farao') - Jazz Lounge Disk 10 (French Music)
DYEAR=2003
DGENRE=Jazz
TTITLE0=13 Jours en France
TTITLE1=Holidays
TTITLE2=Concerto Pour Une Voix
TTITLE3=Hymn A L'Amour (If You Love Me)
TTITLE4=Autumn Leaves (Les Feuiles Mortes)
TTITLE5=Moulin Rouge
TTITLE6=Les Parapluies de Cherbourg
TTITLE7=Canson de Marcelino
TTITLE8=Du Soleil Plein les Yeux
TTITLE9=Les Champs Elysees
TTITLE10=Live for Life
TTITLE11=Solenzara
EXTD=YEAR: 2003
EXTT0=
EXTT1=
EXTT2=
EXTT3=
EXTT4=
EXTT5=
EXTT6=
EXTT7=
EXTT8=
EXTT9=
EXTT10=
EXTT11=
PLAYORDER=
